<?xml version="1.0" encoding="UTF-8"?>
<!DOCTYPE svg PUBLIC "-//W3C//DTD SVG 1.1//EN" "http://www.w3.org/Graphics/SVG/1.1/DTD/svg11.dtd">
<svg xmlns="http://www.w3.org/2000/svg" version="1.1" width="2358" height="1958"  style="shape-rendering:geometricPrecision; text-rendering:geometricPrecision; image-rendering:optimizeQuality; fill-rule:evenodd; clip-rule:evenodd" xmlns:xlink="http://www.w3.org/1999/xlink">
<g><path style="opacity:1" fill="#fefefe" d="M -0.5,-0.5 C 166.167,-0.5 332.833,-0.5 499.5,-0.5C 499.5,166.167 499.5,332.833 499.5,499.5C 332.833,499.5 166.167,499.5 -0.5,499.5C -0.5,332.833 -0.5,166.167 -0.5,-0.5 Z"/></g>
<g><path style="opacity:1" fill="#41adaf" d="M 238.5,157.5 C 250.701,157.84 262.701,158.84 274.5,160.5C 271.15,160.335 267.817,160.502 264.5,161C 261.913,162.525 261.08,164.692 262,167.5C 276.849,197.864 291.682,228.198 306.5,258.5C 308.232,256.717 309.732,254.717 311,252.5C 314.667,242.167 318.333,231.833 322,221.5C 322.667,219.833 322.667,218.167 322,216.5C 314,199.833 306,183.167 298,166.5C 294.685,161.893 290.185,159.893 284.5,160.5C 284.5,159.5 284.5,158.5 284.5,157.5C 309.167,157.5 333.833,157.5 358.5,157.5C 358.5,158.5 358.5,159.5 358.5,160.5C 352.339,159.331 347.506,161.331 344,166.5C 340.303,175.923 336.803,185.423 333.5,195C 335.864,200.228 338.364,205.394 341,210.5C 341.986,211.171 343.153,211.171 344.5,210.5C 345.167,210.5 345.833,210.5 346.5,210.5C 345.286,211.626 344.286,212.959 343.5,214.5C 350.468,230.436 357.968,246.102 366,261.5C 367.41,257.101 368.91,252.768 370.5,248.5C 371.167,248.833 371.833,249.167 372.5,249.5C 368.298,261.438 364.298,273.438 360.5,285.5C 376.098,286.944 389.431,282.277 400.5,271.5C 401.167,271.5 401.5,271.833 401.5,272.5C 392.673,282.908 381.34,287.908 367.5,287.5C 363.361,287.587 359.361,286.92 355.5,285.5C 346.667,267.167 337.833,248.833 329,230.5C 322.836,238.825 317.169,247.492 312,256.5C 308.864,266.241 305.531,275.908 302,285.5C 300.506,286.747 299.006,286.747 297.5,285.5C 296.917,283.998 296.084,282.665 295,281.5C 294.623,282.942 293.79,283.942 292.5,284.5C 291.833,284.5 291.167,284.5 290.5,284.5C 291.072,283.027 291.905,281.693 293,280.5C 293.667,279.167 293.667,277.833 293,276.5C 275.486,240.14 257.986,203.807 240.5,167.5C 240.217,166.711 239.717,166.044 239,165.5C 238.17,195.003 238.336,224.336 239.5,253.5C 239.511,255.017 240.177,256.184 241.5,257C 244.444,257.97 247.444,258.804 250.5,259.5C 236.833,260.833 223.167,260.833 209.5,259.5C 212.616,258.816 215.616,257.816 218.5,256.5C 220.086,254.827 220.753,252.827 220.5,250.5C 221.664,216.669 221.831,182.669 221,148.5C 220.283,149.044 219.783,149.711 219.5,150.5C 206.167,187.167 192.833,223.833 179.5,260.5C 176.95,260.439 175.45,259.106 175,256.5C 168,238.167 161,219.833 154,201.5C 153.653,199.82 152.653,198.82 151,198.5C 145.781,200.525 140.947,203.192 136.5,206.5C 135.334,222.156 135.167,237.823 136,253.5C 138.158,257.669 141.658,259.669 146.5,259.5C 138.167,260.833 129.833,260.833 121.5,259.5C 124.556,258.804 127.556,257.97 130.5,257C 131.823,256.184 132.489,255.017 132.5,253.5C 133.661,238.672 133.828,223.672 133,208.5C 132.283,209.044 131.783,209.711 131.5,210.5C 127.208,213.457 123.208,216.79 119.5,220.5C 118.833,220.5 118.167,220.5 117.5,220.5C 122.163,215.004 127.33,210.004 133,205.5C 133.667,186.5 133.667,167.5 133,148.5C 129.095,145.356 124.595,143.69 119.5,143.5C 129.812,142.501 140.145,142.168 150.5,142.5C 156.097,158.288 162.097,173.954 168.5,189.5C 174.138,190.33 179.804,190.83 185.5,191C 191.617,194.913 191.951,199.246 186.5,204C 182.418,205.293 179.251,204.126 177,200.5C 176.218,197.743 176.718,195.243 178.5,193C 175.854,192.503 173.187,192.336 170.5,192.5C 174.962,206.717 180.129,220.717 186,234.5C 197.53,204.244 208.863,173.911 220,143.5C 230.106,142.182 240.272,142.182 250.5,143.5C 240.903,143.358 236.903,148.025 238.5,157.5 Z"/></g>
<g><path style="opacity:1" fill="#6ec1c2" d="M 220.5,250.5 C 220.832,216.996 220.498,183.662 219.5,150.5C 219.783,149.711 220.283,149.044 221,148.5C 221.831,182.669 221.664,216.669 220.5,250.5 Z"/></g>
<g><path style="opacity:1" fill="#fefefe" d="M 219.5,150.5 C 220.498,183.662 220.832,216.996 220.5,250.5C 220.753,252.827 220.086,254.827 218.5,256.5C 215.616,257.816 212.616,258.816 209.5,259.5C 223.167,260.833 236.833,260.833 250.5,259.5C 247.444,258.804 244.444,257.97 241.5,257C 240.177,256.184 239.511,255.017 239.5,253.5C 239.169,224.662 239.502,195.995 240.5,167.5C 257.986,203.807 275.486,240.14 293,276.5C 293.667,277.833 293.667,279.167 293,280.5C 291.905,281.693 291.072,283.027 290.5,284.5C 273.405,311.429 251.405,333.596 224.5,351C 184.254,369.892 148.754,363.392 118,331.5C 91.5556,294.084 92.0556,257.084 119.5,220.5C 123.208,216.79 127.208,213.457 131.5,210.5C 132.496,224.657 132.829,238.99 132.5,253.5C 132.489,255.017 131.823,256.184 130.5,257C 127.556,257.97 124.556,258.804 121.5,259.5C 129.833,260.833 138.167,260.833 146.5,259.5C 141.658,259.669 138.158,257.669 136,253.5C 135.167,237.823 135.334,222.156 136.5,206.5C 140.947,203.192 145.781,200.525 151,198.5C 152.653,198.82 153.653,199.82 154,201.5C 161,219.833 168,238.167 175,256.5C 175.45,259.106 176.95,260.439 179.5,260.5C 192.833,223.833 206.167,187.167 219.5,150.5 Z"/></g>
<g><path style="opacity:1" fill="#fbfdfd" d="M 135.5,155.5 C 141.6,168.788 146.933,182.454 151.5,196.5C 146.141,198.012 141.141,200.346 136.5,203.5C 135.501,187.514 135.167,171.514 135.5,155.5 Z"/></g>
<g><path style="opacity:1" fill="#a6d9da" d="M 238.5,157.5 C 250.833,157.5 263.167,157.5 275.5,157.5C 275.737,158.791 275.404,159.791 274.5,160.5C 262.701,158.84 250.701,157.84 238.5,157.5 Z"/></g>
<g><path style="opacity:1" fill="#fcfdfd" d="M 322.5,160.5 C 328.358,159.987 334.025,160.654 339.5,162.5C 340.647,164.765 340.814,167.098 340,169.5C 337.727,176.986 335.06,184.32 332,191.5C 327.424,182.848 323.257,174.015 319.5,165C 320.315,163.357 321.315,161.857 322.5,160.5 Z"/></g>
<g><path style="opacity:1" fill="#dff2f2" d="M 240.5,167.5 C 239.502,195.995 239.169,224.662 239.5,253.5C 238.336,224.336 238.17,195.003 239,165.5C 239.717,166.044 240.217,166.711 240.5,167.5 Z"/></g>
<g><path style="opacity:1" fill="#fdfefe" d="M 370.5,248.5 C 368.91,252.768 367.41,257.101 366,261.5C 357.968,246.102 350.468,230.436 343.5,214.5C 344.286,212.959 345.286,211.626 346.5,210.5C 358.574,204.107 371.241,202.774 384.5,206.5C 380.035,220.562 375.368,234.562 370.5,248.5 Z"/></g>
<g><path style="opacity:1" fill="#ceeaea" d="M 132.5,253.5 C 132.829,238.99 132.496,224.657 131.5,210.5C 131.783,209.711 132.283,209.044 133,208.5C 133.828,223.672 133.661,238.672 132.5,253.5 Z"/></g>
<g><path style="opacity:1" fill="#59b6b8" d="M 401.5,272.5 C 401.5,271.833 401.167,271.5 400.5,271.5C 411.486,255.411 412.319,238.744 403,221.5C 398.746,216.117 393.58,211.783 387.5,208.5C 382.298,222.109 377.298,235.776 372.5,249.5C 371.833,249.167 371.167,248.833 370.5,248.5C 375.368,234.562 380.035,220.562 384.5,206.5C 371.241,202.774 358.574,204.107 346.5,210.5C 345.833,210.5 345.167,210.5 344.5,210.5C 348.402,206.792 353.069,204.292 358.5,203C 367.938,202.105 377.271,202.605 386.5,204.5C 390.492,191.845 394.492,179.178 398.5,166.5C 398.61,164.626 397.944,163.126 396.5,162C 393.649,160.711 390.649,160.211 387.5,160.5C 387.5,159.5 387.5,158.5 387.5,157.5C 397.167,157.5 406.833,157.5 416.5,157.5C 416.5,158.5 416.5,159.5 416.5,160.5C 410.302,159.352 405.469,161.352 402,166.5C 397.203,179.059 392.703,191.725 388.5,204.5C 388.608,205.442 388.941,206.275 389.5,207C 412.676,222.212 418.176,242.379 406,267.5C 404.951,269.618 403.451,271.284 401.5,272.5 Z"/></g>
<g><path style="opacity:1" fill="#fdfefe" d="M 400.5,271.5 C 389.431,282.277 376.098,286.944 360.5,285.5C 364.298,273.438 368.298,261.438 372.5,249.5C 377.298,235.776 382.298,222.109 387.5,208.5C 393.58,211.783 398.746,216.117 403,221.5C 412.319,238.744 411.486,255.411 400.5,271.5 Z"/></g>
<g><path style="opacity:1" fill="#f1f9f9" d="M 323.5,222.5 C 325.649,223.59 326.982,225.424 327.5,228C 324.712,233.073 321.546,237.906 318,242.5C 319.701,235.884 321.534,229.218 323.5,222.5 Z"/></g>
<g><path style="opacity:1" fill="#7fc8c9" d="M 342.5,302.5 C 344.527,302.338 346.527,302.505 348.5,303C 347.207,303.49 345.873,303.657 344.5,303.5C 344.5,304.5 344.5,305.5 344.5,306.5C 349.833,307.167 349.833,307.833 344.5,308.5C 344.5,309.5 344.5,310.5 344.5,311.5C 345.873,311.343 347.207,311.51 348.5,312C 346.527,312.495 344.527,312.662 342.5,312.5C 342.5,309.167 342.5,305.833 342.5,302.5 Z"/></g>
<g><path style="opacity:1" fill="#7ac5c6" d="M 322.5,302.5 C 323.81,304.435 325.143,306.435 326.5,308.5C 327.919,306.664 329.086,304.664 330,302.5C 329.738,306.051 328.571,309.384 326.5,312.5C 324.599,309.369 323.265,306.035 322.5,302.5 Z"/></g>
<g><path style="opacity:1" fill="#80c8c9" d="M 280.5,306.5 C 281.167,306.5 281.5,306.167 281.5,305.5C 282.268,306.263 282.768,307.263 283,308.5C 284.226,301.361 285.892,301.027 288,307.5C 288.98,305.941 289.813,304.274 290.5,302.5C 290.89,305.767 290.39,309.101 289,312.5C 287.927,310.453 286.761,308.453 285.5,306.5C 284.59,308.655 283.423,310.655 282,312.5C 281.495,310.482 280.995,308.482 280.5,306.5 Z"/></g>
<g><path style="opacity:1" fill="#70c1c3" d="M 305.5,305.5 C 305.281,304.325 305.614,303.325 306.5,302.5C 308.583,305.584 309.749,308.918 310,312.5C 308.776,309.527 306.776,308.86 304,310.5C 303.401,308.465 303.901,306.799 305.5,305.5 Z"/></g>
<g><path style="opacity:1" fill="#f2f9f9" d="M 305.5,305.5 C 307.465,305.948 307.798,306.948 306.5,308.5C 305.614,307.675 305.281,306.675 305.5,305.5 Z"/></g>
<g><path style="opacity:1" fill="#55b5b7" d="M 117.5,220.5 C 118.167,220.5 118.833,220.5 119.5,220.5C 92.0556,257.084 91.5556,294.084 118,331.5C 148.754,363.392 184.254,369.892 224.5,351C 251.405,333.596 273.405,311.429 290.5,284.5C 291.167,284.5 291.833,284.5 292.5,284.5C 289.137,290.709 285.137,296.543 280.5,302C 281.337,303.011 281.67,304.178 281.5,305.5C 281.5,306.167 281.167,306.5 280.5,306.5C 280.719,305.325 280.386,304.325 279.5,303.5C 266.648,319.852 251.981,334.352 235.5,347C 209.049,364.771 180.716,368.437 150.5,358C 111.606,339.061 93.7725,307.894 97,264.5C 99.836,247.835 106.669,233.169 117.5,220.5 Z"/></g>
<g><path style="opacity:1" fill="#a7d9da" d="M 202.5,306.5 C 209.167,307.167 209.167,307.833 202.5,308.5C 202.5,307.833 202.5,307.167 202.5,306.5 Z"/></g>
<g><path style="opacity:1" fill="#a3d7d8" d="M 183.5,306.5 C 190.167,307.167 190.167,307.833 183.5,308.5C 183.5,307.833 183.5,307.167 183.5,306.5 Z"/></g>
<g><path style="opacity:1" fill="#71c1c2" d="M 160.5,302.5 C 162.446,304.353 163.946,306.686 165,309.5C 165.725,307.051 166.725,304.717 168,302.5C 169.631,305.682 170.297,309.015 170,312.5C 168.837,310.715 168.17,308.715 168,306.5C 166.815,308.377 165.815,310.377 165,312.5C 163.815,310.623 162.815,308.623 162,306.5C 161.333,308.5 160.667,310.5 160,312.5C 159.828,309.174 159.995,305.841 160.5,302.5 Z"/></g>
<g><path style="opacity:1" fill="#4bb2b4" d="M 183.5,306.5 C 183.5,307.167 183.5,307.833 183.5,308.5C 183.5,309.5 183.5,310.5 183.5,311.5C 185.199,311.34 186.866,311.506 188.5,312C 186.527,312.495 184.527,312.662 182.5,312.5C 182.5,309.167 182.5,305.833 182.5,302.5C 184.527,302.338 186.527,302.505 188.5,303C 186.866,303.494 185.199,303.66 183.5,303.5C 183.5,304.5 183.5,305.5 183.5,306.5 Z"/></g>
<g><path style="opacity:1" fill="#4ab1b3" d="M 218.5,303.5 C 220.288,302.378 222.288,302.211 224.5,303C 222.812,305.825 221.979,308.991 222,312.5C 221.502,309.518 221.335,306.518 221.5,303.5C 220.5,303.5 219.5,303.5 218.5,303.5 Z"/></g>
<g><path style="opacity:1" fill="#76c3c4" d="M 202.5,306.5 C 202.5,307.167 202.5,307.833 202.5,308.5C 202.5,309.5 202.5,310.5 202.5,311.5C 204.199,311.34 205.866,311.506 207.5,312C 205.19,312.497 202.857,312.663 200.5,312.5C 200.5,309.167 200.5,305.833 200.5,302.5C 202.857,302.337 205.19,302.503 207.5,303C 205.866,303.494 204.199,303.66 202.5,303.5C 202.5,304.5 202.5,305.5 202.5,306.5 Z"/></g>
</svg>
